<svg viewBox="0 0 100 31" fill="none" xmlns="http://www.w3.org/2000/svg">
<g clip-path="url(#clip0_39_456)">
<mask id="mask0_39_456" style="mask-type:luminance" maskUnits="userSpaceOnUse" x="0" y="0" width="100" height="31">
<path d="M100 0H0V30.1824H100V0Z" fill="white"/>
</mask>
<g mask="url(#mask0_39_456)">
<path d="M62.0243 23.5793C56.2201 27.8574 47.8072 30.14 40.5639 30.14C30.4077 30.14 21.2644 26.3836 14.3471 20.1359C13.8036 19.6447 14.2905 18.975 14.9427 19.3576C22.4078 23.701 31.638 26.314 41.1725 26.314C47.6029 26.314 54.6767 24.9836 61.1808 22.2228C62.1634 21.8053 62.9851 22.8662 62.0243 23.5793Z" fill="#FF9900"/>
<path d="M64.4372 20.8185C63.6981 19.8707 59.5329 20.3707 57.6634 20.5924C57.0939 20.6621 57.0069 20.1664 57.52 19.8098C60.8372 17.4752 66.2807 18.149 66.9153 18.9316C67.5502 19.7186 66.7502 25.175 63.6329 27.7793C63.1546 28.1793 62.6981 27.9662 62.9112 27.4357C63.6112 25.6879 65.1807 21.7707 64.4372 20.8185Z" fill="#FF9900"/>
<path d="M57.7939 3.32755V1.05803C57.7939 0.71456 58.0547 0.484131 58.3678 0.484131H68.5285C68.8545 0.484131 69.1154 0.718909 69.1154 1.05803V3.00147C69.1111 3.32755 68.8371 3.75362 68.3502 4.42752L63.0851 11.9448C65.0416 11.897 67.1068 12.1883 68.8806 13.1882C69.2806 13.4143 69.3894 13.7447 69.4197 14.0708V16.4925C69.4197 16.8229 69.0545 17.2098 68.672 17.0098C65.5459 15.3708 61.3938 15.1925 57.9373 17.0272C57.5852 17.2186 57.2156 16.836 57.2156 16.5055V14.2056C57.2156 13.836 57.2201 13.2056 57.5895 12.6448L63.6894 3.89711H58.3809C58.0547 3.89711 57.7939 3.66668 57.7939 3.32755Z" fill="white"/>
<path d="M20.7296 17.4882H17.6384C17.3427 17.4664 17.1079 17.2447 17.0862 16.9621V1.0972C17.0862 0.779818 17.3514 0.527647 17.6819 0.527647H20.5645C20.8643 0.540682 21.1034 0.77112 21.1253 1.05807V3.13195H21.1817C21.9339 1.12764 23.3469 0.192871 25.2512 0.192871C27.186 0.192871 28.3946 1.12764 29.2641 3.13195C30.0121 1.12764 31.7121 0.192871 33.5336 0.192871C34.8293 0.192871 36.2467 0.727642 37.1119 1.92762C38.0902 3.26238 37.8902 5.20147 37.8902 6.90144L37.8857 16.9144C37.8857 17.2316 37.6205 17.4882 37.2902 17.4882H34.2033C33.8945 17.4664 33.6467 17.2187 33.6467 16.9144V8.50575C33.6467 7.83619 33.7076 6.16666 33.5598 5.5319C33.3293 4.46669 32.6381 4.16671 31.7424 4.16671C30.9946 4.16671 30.2121 4.66669 29.8946 5.46668C29.5772 6.26666 29.6077 7.60576 29.6077 8.50575V16.9144C29.6077 17.2316 29.3424 17.4882 29.0121 17.4882H25.9252C25.6121 17.4664 25.3686 17.2187 25.3686 16.9144L25.3643 8.50575C25.3643 6.73621 25.6555 4.13192 23.46 4.13192C21.2383 4.13192 21.3252 6.671 21.3252 8.50575V16.9144C21.3252 17.2316 21.06 17.4882 20.7296 17.4882Z" fill="white"/>
<path d="M77.8631 0.192871C82.45 0.192871 84.9326 4.13192 84.9326 9.14051C84.9326 13.9796 82.1892 17.8187 77.8631 17.8187C73.359 17.8187 70.9067 13.8796 70.9067 8.97096C70.9067 4.03192 73.3893 0.192871 77.8631 0.192871ZM77.8893 3.43193C75.6111 3.43193 75.4676 6.53621 75.4676 8.47097C75.4676 10.4101 75.4371 14.5491 77.8631 14.5491C80.2588 14.5491 80.3717 11.2101 80.3717 9.1753C80.3717 7.83619 80.3154 6.23623 79.9109 4.96669C79.5631 3.86236 78.8719 3.43193 77.8893 3.43193Z" fill="white"/>
<path d="M90.8803 17.4882H87.8021C87.4934 17.4664 87.2455 17.2187 87.2455 16.9144L87.2412 1.04503C87.2674 0.753729 87.5238 0.527647 87.8369 0.527647H90.7021C90.9716 0.540682 91.1933 0.723296 91.2541 0.971117V3.39716H91.3107C92.1759 1.22764 93.389 0.192871 95.5236 0.192871C96.9105 0.192871 98.2628 0.692861 99.1323 2.0624C99.941 3.33193 99.941 5.46668 99.941 7.00142V16.9882C99.9062 17.2664 99.6497 17.4882 99.3454 17.4882H96.2454C95.9628 17.4664 95.7279 17.2578 95.6976 16.9882V8.37097C95.6976 6.63621 95.8976 4.09714 93.7628 4.09714C93.0107 4.09714 92.3193 4.60148 91.9759 5.36668C91.5412 6.33623 91.4847 7.30142 91.4847 8.37097V16.9144C91.4803 17.2316 91.2107 17.4882 90.8803 17.4882Z" fill="white"/>
<path d="M9.16881 9.91013V9.24057C6.93406 9.24057 4.57325 9.71883 4.57325 12.3535C4.57325 13.6883 5.26455 14.5926 6.45148 14.5926C7.32101 14.5926 8.09926 14.0578 8.59057 13.1883C9.19924 12.1187 9.16881 11.1144 9.16881 9.91013ZM12.2861 17.4447C12.0818 17.6273 11.7861 17.6404 11.5557 17.5187C10.5297 16.6664 10.3471 16.2708 9.78184 15.4578C8.08622 17.1881 6.88625 17.7056 4.68629 17.7056C2.08634 17.7056 0.0603027 16.1013 0.0603027 12.8883C0.0603027 10.3797 1.42114 8.67102 3.35589 7.83626C5.03411 7.09714 7.37755 6.96671 9.16881 6.76237V6.36238C9.16881 5.62761 9.22533 4.75807 8.79491 4.12329C8.41665 3.55374 7.69493 3.31897 7.06015 3.31897C5.88193 3.31897 4.82977 3.92329 4.57325 5.17545C4.52108 5.45371 4.31673 5.72761 4.03848 5.74066L1.03854 5.41892C0.786373 5.3624 0.508118 5.15805 0.577682 4.77111C1.26897 1.1364 4.55151 0.0407715 7.49058 0.0407715C8.99489 0.0407715 10.9601 0.440763 12.147 1.57987C13.6513 2.98419 13.5078 4.85807 13.5078 6.89716V11.7144C13.5078 13.1622 14.1078 13.797 14.673 14.5796C14.873 14.8578 14.9165 15.1926 14.6643 15.4013C14.0339 15.9274 12.9122 16.9056 12.2948 17.4535L12.2861 17.4447Z" fill="white"/>
<path d="M49.241 9.91013V9.24057C47.0064 9.24057 44.6455 9.71883 44.6455 12.3535C44.6455 13.6883 45.3369 14.5926 46.5238 14.5926C47.3933 14.5926 48.1715 14.0578 48.6628 13.1883C49.2715 12.1187 49.241 11.1144 49.241 9.91013ZM52.3584 17.4447C52.1541 17.6273 51.8584 17.6404 51.6279 17.5187C50.6019 16.6664 50.4193 16.2708 49.8541 15.4578C48.1584 17.1881 46.9584 17.7056 44.7586 17.7056C42.1586 17.7056 40.1326 16.1013 40.1326 12.8883C40.1326 10.3797 41.4934 8.67102 43.4281 7.83626C45.1064 7.09714 47.4498 6.96671 49.241 6.76237V6.36238C49.241 5.62761 49.2976 4.75807 48.8672 4.12329C48.489 3.55374 47.7672 3.31897 47.1324 3.31897C45.9541 3.31897 44.9021 3.92329 44.6455 5.17545C44.5933 5.45371 44.389 5.72761 44.1107 5.74066L41.1108 5.41892C40.8586 5.3624 40.5803 5.15805 40.65 4.77111C41.3412 1.1364 44.6238 0.0407715 47.5629 0.0407715C49.0672 0.0407715 51.0324 0.440763 52.2193 1.57987C53.7236 2.98419 53.5802 4.85807 53.5802 6.89716V11.7144C53.5802 13.1622 54.1802 13.797 54.7453 14.5796C54.9453 14.8578 54.9888 15.1926 54.7366 15.4013C54.1062 15.9274 52.9845 16.9056 52.3671 17.4535L52.3584 17.4447Z" fill="white"/>
</g>
</g>
<defs>
<clipPath id="clip0_39_456">
<rect width="100" height="31" fill="white"/>
</clipPath>
</defs>
</svg>
