<svg  viewBox="0 0 50 21" fill="none" xmlns="http://www.w3.org/2000/svg">
<g clip-path="url(#clip0_39_411)">
<mask id="mask0_39_411" style="mask-type:luminance" maskUnits="userSpaceOnUse" x="0" y="0" width="50" height="21">
<path d="M50 0H0V20.054H50V0Z" fill="white"/>
</mask>
<g mask="url(#mask0_39_411)">
<path d="M6.47768 4.38477C2.95339 4.38477 0.0166016 5.87994 0.0166016 10.3908C0.0166016 13.9644 1.99138 16.2149 6.56868 16.2149C11.9563 16.2149 12.3017 12.6658 12.3017 12.6658H9.69115C9.69115 12.6658 9.13142 14.5769 6.40943 14.5769C4.19244 14.5769 2.59789 13.0792 2.59789 10.9801H12.5747V9.66283C12.5747 7.5861 11.2564 4.38477 6.47768 4.38477ZM6.38668 6.06828C8.49702 6.06828 9.93572 7.36113 9.93572 9.29882H2.65563C2.65563 7.24172 4.5335 6.06828 6.38668 6.06828Z" fill="#E53238"/>
<path d="M12.5729 0.0166016V13.9494C12.5729 14.7403 12.5164 15.8508 12.5164 15.8508H15.0064C15.0064 15.8508 15.0957 15.0532 15.0957 14.3243C15.0957 14.3243 16.3259 16.2489 19.6709 16.2489C23.1934 16.2489 25.586 13.8034 25.586 10.2997C25.586 7.04028 23.3883 4.41877 19.6766 4.41877C16.2009 4.41877 15.1209 6.29567 15.1209 6.29567V0.0166016H12.5729ZM19.0339 6.14211C21.4259 6.14211 22.947 7.91738 22.947 10.2997C22.947 12.8543 21.1902 14.5256 19.051 14.5256C16.498 14.5256 15.1209 12.5322 15.1209 10.3224C15.1209 8.2634 16.3566 6.14211 19.0339 6.14211Z" fill="#0064D2"/>
<path d="M31.7741 4.38477C26.4721 4.38477 26.132 7.28789 26.132 7.7518H28.7711C28.7711 7.7518 28.9094 6.05691 31.5921 6.05691C33.3353 6.05691 34.6861 6.85481 34.6861 8.38881V8.93482H31.5921C27.4845 8.93482 25.313 10.1364 25.313 12.5748C25.313 14.9746 27.3194 16.2803 30.0308 16.2803C33.7261 16.2803 34.9165 14.2384 34.9165 14.2384C34.9165 15.0506 34.9791 15.8509 34.9791 15.8509H37.3252C37.3252 15.8509 37.2342 14.8589 37.2342 14.2242V8.7386C37.2342 5.14173 34.3329 4.38477 31.7741 4.38477ZM34.6861 10.5728V11.3008C34.6861 12.2503 34.1002 14.611 30.6508 14.611C28.7619 14.611 27.952 13.6683 27.952 12.5748C27.952 10.5856 30.6793 10.5728 34.6861 10.5728Z" fill="#F5AF02"/>
<path d="M35.8132 4.84009H38.7821L43.0429 13.3763L47.2939 4.84009H49.9833L42.2401 20.0373H39.4191L41.6535 15.8008L35.8132 4.84009Z" fill="#86B817"/>
</g>
</g>
<defs>
<clipPath id="clip0_39_411">
<rect width="50" height="21" fill="white"/>
</clipPath>
</defs>
</svg>
