<svg  viewBox="0 0 100 33" fill="none" xmlns="http://www.w3.org/2000/svg">
<g clip-path="url(#clip0_39_445)">
<mask id="mask0_39_445" style="mask-type:luminance" maskUnits="userSpaceOnUse" x="0" y="0" width="100" height="33">
<path d="M100 0H0V32.64H100V0Z" fill="white"/>
</mask>
<g mask="url(#mask0_39_445)">
<path d="M12.3154 0.00292969H13.2047C16.2919 0.0700438 19.3289 1.31165 21.5101 3.50964C20.7047 4.33179 19.8826 5.12038 19.094 5.94253C17.8691 4.83514 16.3926 3.97944 14.7819 3.67743C12.3993 3.17407 9.83222 3.62709 7.83557 4.98615C5.65436 6.41233 4.17785 8.82843 3.85906 11.4123C3.50671 13.9626 4.22819 16.6472 5.88926 18.6271C7.48322 20.5566 9.91611 21.7646 12.4329 21.8485C14.7819 21.9828 17.2315 21.2613 18.943 19.617C20.2852 18.4593 20.906 16.6975 21.1074 14.9861C18.3221 14.9861 15.5369 15.0029 12.7517 14.9861V11.5297H24.4799C25.0839 15.2378 24.2114 19.4157 21.3926 22.0667C19.5134 23.9459 16.9128 25.0532 14.2617 25.2714C11.6946 25.523 9.04363 25.0365 6.76175 23.7948C4.02685 22.3351 1.84564 19.8687 0.771812 16.966C-0.234899 14.2982 -0.251678 11.2781 0.68792 8.59353C1.54362 6.14387 3.18792 3.97944 5.30201 2.46937C7.33222 0.976085 9.79866 0.153937 12.3154 0.00292969Z" fill="#3780FF"/>
<path d="M79.5974 0.875488H83.188V24.8352C81.9967 24.8352 80.7887 24.852 79.5974 24.8184C79.6142 16.8486 79.5974 8.86206 79.5974 0.875488Z" fill="#38B137"/>
<path d="M32.4664 9.18082C34.6812 8.76136 37.0805 9.23115 38.9094 10.5567C40.5705 11.7312 41.7282 13.5768 42.0805 15.5902C42.5336 17.9224 41.9631 20.4728 40.453 22.3184C38.8255 24.3822 36.1577 25.4896 33.5571 25.3218C31.1745 25.1875 28.8591 23.9963 27.4497 22.05C25.8557 19.9023 25.4698 16.9493 26.3423 14.4325C27.2148 11.7312 29.6812 9.6674 32.4664 9.18082ZM32.9698 12.3687C32.0638 12.6036 31.2248 13.1238 30.6208 13.862C28.9933 15.8083 29.094 18.9795 30.8893 20.7916C31.9128 21.8318 33.4564 22.3184 34.8826 22.0332C36.2081 21.7983 37.3658 20.909 38.0034 19.7345C39.1107 17.7379 38.792 14.9862 37.0973 13.4258C36.0067 12.4191 34.4128 11.9996 32.9698 12.3687Z" fill="#FA3913"/>
<path d="M50.2517 9.18083C52.7853 8.69426 55.5537 9.39895 57.4497 11.1775C60.5369 13.9459 60.8725 19.1305 58.2383 22.3184C56.6443 24.3319 54.0604 25.4392 51.5101 25.3218C49.0772 25.2547 46.6779 24.0466 45.2349 22.05C43.6074 19.852 43.2551 16.8319 44.1779 14.2647C45.1007 11.6473 47.5168 9.65063 50.2517 9.18083ZM50.7551 12.3688C49.849 12.6037 49.0101 13.1238 48.4061 13.8453C46.7953 15.758 46.8624 18.8788 48.5906 20.7077C49.6141 21.7983 51.2081 22.3352 52.6846 22.0332C53.9933 21.7815 55.1678 20.909 55.8054 19.7345C56.896 17.7211 56.5772 14.9694 54.8658 13.409C53.7752 12.4023 52.1812 11.9996 50.7551 12.3688Z" fill="#FCBD06"/>
<path d="M65.3355 10.154C67.265 8.94597 69.8322 8.6104 71.9127 9.65066C72.5671 9.9359 73.104 10.4225 73.6241 10.909C73.6409 10.456 73.6241 9.98624 73.6409 9.51644C74.765 9.53322 75.8892 9.51644 77.0301 9.53322V24.3319C77.0134 26.5634 76.4429 28.9292 74.8322 30.5567C73.0704 32.352 70.3691 32.9057 67.9362 32.5365C65.3355 32.1506 63.0704 30.2547 62.0637 27.8553C63.0704 27.3688 64.1275 26.9829 65.1677 26.5298C65.755 27.9057 66.9463 29.0802 68.4395 29.3486C69.9328 29.6171 71.661 29.248 72.6342 28.0064C73.6744 26.7312 73.6744 24.9862 73.6241 23.4258C72.8523 24.1808 71.963 24.852 70.8892 25.1037C68.557 25.758 65.9899 24.9527 64.1946 23.3755C62.3825 21.7983 61.3087 19.3654 61.4093 16.9493C61.4597 14.2144 63.0033 11.5802 65.3355 10.154ZM68.8087 12.3017C67.7852 12.4694 66.8288 13.0399 66.1744 13.8285C64.5973 15.7077 64.5973 18.711 66.1912 20.5567C67.0973 21.6473 68.557 22.2513 69.9664 22.1003C71.2919 21.9661 72.5167 21.1272 73.1711 19.9694C74.2785 18.0064 74.0939 15.3386 72.6006 13.6272C71.6778 12.5701 70.2013 12.05 68.8087 12.3017Z" fill="#3780FF"/>
<path d="M87.5 11.0097C89.5134 9.13051 92.6175 8.49292 95.2014 9.48285C97.651 10.4057 99.2114 12.7379 100 15.1372C96.3591 16.6473 92.7349 18.1406 89.094 19.6506C89.5973 20.607 90.3691 21.4795 91.4094 21.8318C92.8691 22.352 94.6141 22.1674 95.839 21.1942C96.3255 20.8251 96.7114 20.3385 97.0806 19.8687C98.0034 20.4895 98.9262 21.0936 99.849 21.7144C98.5403 23.6775 96.3423 25.0533 93.9765 25.2714C91.3591 25.5902 88.5738 24.5835 86.8792 22.5365C84.094 19.315 84.3624 13.9124 87.5 11.0097ZM89.2953 14.1137C88.7249 14.9359 88.49 15.9426 88.5067 16.9325C90.9396 15.9258 93.3725 14.9191 95.8054 13.8956C95.4027 12.956 94.4296 12.3855 93.4396 12.2345C91.8457 11.9493 90.1846 12.805 89.2953 14.1137Z" fill="#FA3913"/>
</g>
</g>
<defs>
<clipPath id="clip0_39_445">
<rect width="100" height="33" fill="white"/>
</clipPath>
</defs>
</svg>
