<svg  viewBox="0 0 323 107" fill="none" xmlns="http://www.w3.org/2000/svg">
<mask id="mask0_30_702" style="mask-type:luminance" maskUnits="userSpaceOnUse" x="8" y="4" width="74" height="88">
<path d="M8 4H81.5118V92H8V4Z" fill="white"/>
</mask>
<g mask="url(#mask0_30_702)">
<path d="M79.32 28.1488C77.8773 26.4952 75.7909 25.5353 73.5991 25.5353H62.6123V22.7553C62.6123 12.856 54.5719 4.82123 44.7171 4.82123C34.8567 4.82123 26.8163 12.8782 26.8163 22.7553V25.5353H15.8295C13.6377 25.5353 11.5513 26.4952 10.1086 28.1488C8.67144 29.8024 8.02222 32.0219 8.31631 34.1971L15.2247 83.7821C15.8517 88.2989 19.7581 91.6893 24.2916 91.6893H65.0982C69.6317 91.6893 73.5325 88.2989 74.1818 83.7821L81.0957 34.1971C81.4286 32.0219 80.7628 29.8246 79.32 28.1488ZM33.0811 22.7553C33.0811 16.3297 38.3026 11.1026 44.7171 11.1026C51.1261 11.1026 56.3476 16.3297 56.3476 22.7553V25.5353H33.0811V22.7553ZM52.4023 71.125L45.1333 63.8393L40.0394 68.9443L33.3308 47.1482L55.0935 53.8624L49.9997 58.9674L57.2687 66.2476L52.4023 71.125Z" fill="#0000FF"/>
</g>
<mask id="mask1_30_702" style="mask-type:luminance" maskUnits="userSpaceOnUse" x="28" y="42" width="34" height="34">
<path d="M28.1091 42.8256H61.1917V75.9137H28.1091V42.8256Z" fill="white"/>
</mask>
<g mask="url(#mask1_30_702)">
<path d="M28.1091 42.8256H61.1917V75.9137H28.1091V42.8256Z" fill="#0000FF"/>
</g>
<mask id="mask2_30_702" style="mask-type:luminance" maskUnits="userSpaceOnUse" x="33" y="43" width="26" height="10">
<path d="M33.1919 43.941H58.7557V52.1644H33.1919V43.941Z" fill="white"/>
</mask>
<g mask="url(#mask2_30_702)">
<path d="M38.1637 43.941C33.1919 43.941 33.1919 47.9306 33.1919 47.9306V52.1256H51.5366C55.5262 52.1256 58.7557 48.8573 58.7557 44.8177V43.941H38.1637Z" fill="white"/>
</g>
<mask id="mask3_30_702" style="mask-type:luminance" maskUnits="userSpaceOnUse" x="33" y="53" width="21" height="11">
<path d="M33.1919 53.646H53.4287V63.5896H33.1919V53.646Z" fill="white"/>
</mask>
<g mask="url(#mask3_30_702)">
<path d="M33.9798 63.0569H44.8279C48.8176 63.0569 52.0471 59.7831 52.0471 55.749V54.8723H33.1919V63.0569H33.9798Z" fill="white"/>
</g>
<mask id="mask4_30_702" style="mask-type:luminance" maskUnits="userSpaceOnUse" x="33" y="65" width="8" height="10">
<path d="M33.1919 65.7593H40.4554V74.7984H33.1919V65.7593Z" fill="white"/>
</mask>
<g mask="url(#mask4_30_702)">
<path d="M33.1919 74.7984H34.0187V74.754C37.631 74.3545 40.4499 71.2582 40.4499 67.4905V65.7759H33.1919V74.7984Z" fill="white"/>
</g>
<path d="M99 90.4645H112.374V70.1859H133.743V58.4049H112.374V43.6895H135.936V31.5704H99V90.4645Z" fill="black"/>
<path d="M146.01 90.4646H158.795V46.2967H146.01V90.4646ZM144.156 31.9958C144.156 36.7082 147.527 39.9807 152.403 39.9807C157.29 39.9807 160.649 36.7082 160.649 31.9958C160.649 27.2834 157.29 24 152.403 24C147.527 24 144.156 27.2834 144.156 31.9958Z" fill="black"/>
<path d="M171.578 90.4646H184.362V67.3279C184.362 60.3466 188.235 56.0596 194.125 56.0596C199.59 56.0596 202.874 59.9212 202.874 66.4007V90.4646H215.669V65.059C215.669 52.8526 208.677 45.1185 197.158 45.1185C191.267 45.1185 185.966 47.1366 182.432 51.2599L181.09 46.2966H171.578V90.4646Z" fill="black"/>
<path d="M246.942 91.6427C253.335 91.6427 258.811 89.3737 262.759 85.414L264.276 90.4646H273.777V28.2106H260.992V49.7437C257.207 46.7984 252.407 45.1185 246.942 45.1185C233.819 45.1185 224.482 54.7943 224.482 68.3424C224.482 82.0542 233.819 91.6427 246.942 91.6427ZM237.103 68.3424C237.103 61.1866 242.066 56.0596 249.298 56.0596C256.454 56.0596 261.418 61.1866 261.418 68.3424C261.418 75.5747 256.454 80.6252 249.298 80.6252C242.066 80.6252 237.103 75.5747 237.103 68.3424Z" fill="black"/>
<path d="M286.547 90.4646H299.332V70.9495C299.332 61.4374 303.794 57.9031 311.113 57.9031H316V46.2966H311.2C304.721 46.2966 300.597 48.0638 297.739 52.1871L296.06 46.2966H286.547V90.4646Z" fill="black"/>
</svg>
