<svg  viewBox="0 0 100 25" fill="none" xmlns="http://www.w3.org/2000/svg">
<g clip-path="url(#clip0_10_464)">
<path d="M39.3859 8.80701H42.5438V18.7262H39.3859V8.80701Z" fill="#E60023"/>
<path d="M43.2031 8.80702H46.2448V10.1632H46.3028C47.0391 9.09756 47.9883 8.51648 49.364 8.51648C51.5337 8.51648 52.8123 10.0663 52.8123 12.2749V18.7262H49.6545V12.9142C49.6545 11.868 49.1314 11.1511 48.1046 11.1511C47.0585 11.1511 46.361 12.023 46.361 13.2435V18.7262H43.2031V8.80702Z" fill="#E60023"/>
<path d="M42.8591 6.15316C42.8591 5.10694 42.0109 4.25891 40.9648 4.25891C39.9186 4.25891 39.0706 5.10694 39.0706 6.15316C39.0706 7.19929 39.9186 8.04735 40.9648 8.04735C42.0109 8.04735 42.8591 7.19929 42.8591 6.15316Z" fill="#E60023"/>
<path d="M75.0221 8.66371C74.932 8.65557 74.8287 8.65198 74.7078 8.65198C73.5066 8.65198 72.693 9.17504 71.9955 10.3568H71.9374V8.80694H68.9152V18.726H72.073V14.2702C72.073 12.2056 73.2164 11.2489 75.0221 11.4159V8.66371Z" fill="#E60023"/>
<path d="M90.5191 12.4684C89.2596 12.2361 88.136 12.1392 88.136 11.4418C88.136 10.8218 88.7365 10.5312 89.5113 10.5312C90.3831 10.5312 90.9836 10.8024 91.1001 11.6936H94.0062C93.8514 9.73692 92.3401 8.51636 89.5309 8.51636C87.1868 8.51636 85.2494 9.60127 85.2494 11.6936C85.2494 14.0183 87.0899 14.4833 88.8139 14.774C90.1313 15.0065 91.3323 15.1033 91.3323 15.9945C91.3323 16.6338 90.7318 16.9825 89.7826 16.9825C88.8303 16.9825 88.2001 16.5796 88.007 15.762H84.9984C85.2197 17.8011 87.0094 19.0361 89.8022 19.0361C92.3979 19.0361 94.3159 17.9124 94.3159 15.7427C94.3159 13.2047 92.2627 12.7591 90.5191 12.4684Z" fill="#E60023"/>
<path d="M79.921 10.7637C80.9476 10.7637 81.6833 11.5192 81.7998 12.7011H77.8865C78.0995 11.5192 78.7192 10.7637 79.921 10.7637ZM80.0953 16.75C78.7967 16.75 78.0608 15.917 77.867 14.5802H84.9968C85.0156 12.5655 84.4347 10.8411 83.2533 9.75631C82.4003 8.98141 81.2767 8.51636 79.8623 8.51636C76.8403 8.51636 74.7673 10.783 74.7673 13.7472C74.7673 16.75 76.7822 19.0167 80.0562 19.0167C81.3158 19.0167 82.3228 18.6874 83.1563 18.1062C84.0281 17.5056 84.609 16.6532 84.8225 15.7621H81.7419C81.4706 16.382 80.928 16.75 80.0953 16.75Z" fill="#E60023"/>
<path d="M99.878 16.3871C99.7318 16.3929 99.5348 16.4014 99.3542 16.4014C98.6763 16.4014 98.2502 16.2076 98.2502 15.4327V10.783H99.878V8.80693H98.2502V5.66846H95.1697V8.80693H94.2009V10.783H95.1697V16.1107C95.1697 18.2419 96.4871 18.8424 98.3276 18.8424C99.0297 18.8424 99.5606 18.7897 99.878 18.7279V16.3871Z" fill="#E60023"/>
<path d="M58.4518 16.3916C58.3258 16.3965 58.1804 16.4014 58.0445 16.4014C57.3666 16.4014 56.9402 16.2076 56.9402 15.4327V10.783H58.4518V8.80694H56.9402V5.66846H53.8599V8.80694H52.8327V10.783H53.8599V16.1107C53.8599 18.2419 55.1773 18.8424 57.0178 18.8424C57.6405 18.8424 58.1281 18.8009 58.4518 18.7484V16.3916Z" fill="#E60023"/>
<path d="M65.3302 12.7011C65.2139 11.5193 64.4776 10.7636 63.4508 10.7636C62.2497 10.7636 61.6298 11.5193 61.4166 12.7011H65.3302ZM58.2975 13.7472C58.2975 10.7831 60.3705 8.51648 63.3928 8.51648C64.8069 8.51648 65.9307 8.98137 66.7831 9.75635C67.9649 10.8413 68.546 12.5654 68.5266 14.5803H61.3974C61.591 15.917 62.3272 16.7501 63.6253 16.7501C64.4582 16.7501 65.0008 16.382 65.2719 15.7621H68.3523C68.1391 16.6532 67.5581 17.5056 66.6861 18.1063C65.8532 18.6874 64.8458 19.0168 63.5864 19.0168C60.3123 19.0168 58.2975 16.7501 58.2975 13.7472Z" fill="#E60023"/>
<path d="M33.9017 11.3836C35.1417 11.3836 35.8391 10.6474 35.8391 9.54305C35.8391 8.43883 35.1222 7.76078 33.9017 7.76078H31.4799V11.3836H33.9017ZM28.2829 4.87415H33.7667C35.4521 4.87415 36.692 5.33906 37.5444 6.15279C38.4357 6.98576 38.9394 8.1676 38.9394 9.56244C38.9394 12.2166 37.0989 14.0959 34.251 14.0959H31.4799V18.7261H28.2829V4.87415Z" fill="#E60023"/>
<path d="M23.9479 12.2165C23.9479 18.8012 18.6099 24.1391 12.0253 24.1391C5.44062 24.1391 0.102661 18.8012 0.102661 12.2165C0.102661 5.63181 5.44062 0.293945 12.0253 0.293945C18.6099 0.293945 23.9479 5.63181 23.9479 12.2165Z" fill="white"/>
<path d="M12.0253 0.293945C5.44062 0.293945 0.102661 5.63191 0.102661 12.2165C0.102661 17.2675 3.24525 21.5855 7.68036 23.3226C7.57618 22.3793 7.48196 20.9286 7.7217 19.8988C7.93833 18.9683 9.11973 13.9725 9.11973 13.9725C9.11973 13.9725 8.76312 13.2583 8.76312 12.2024C8.76312 10.5445 9.72403 9.30686 10.9205 9.30686C11.9377 9.30686 12.429 10.0705 12.429 10.9863C12.429 12.0093 11.7777 13.5387 11.4416 14.956C11.1607 16.1427 12.0367 17.1104 13.2071 17.1104C15.3261 17.1104 16.9551 14.876 16.9551 11.6508C16.9551 8.79607 14.9039 6.8002 11.9749 6.8002C8.58251 6.8002 6.59132 9.3447 6.59132 11.9743C6.59132 12.999 6.98607 14.0978 7.47864 14.6951C7.57608 14.8132 7.59034 14.9166 7.56132 15.0371C7.47082 15.4137 7.26969 16.2235 7.2302 16.3893C7.17821 16.6075 7.05741 16.6538 6.83145 16.5486C5.3424 15.8555 4.4114 13.6784 4.4114 11.9298C4.4114 8.16886 7.144 4.71488 12.2892 4.71488C16.425 4.71488 19.6392 7.6621 19.6392 11.6008C19.6392 15.7098 17.0484 19.0167 13.4524 19.0167C12.2443 19.0167 11.1085 18.389 10.7197 17.6477C10.7197 17.6477 10.1219 19.9241 9.97696 20.4819C9.70784 21.5175 8.98118 22.8155 8.49518 23.6075C9.61066 23.9528 10.7962 24.1391 12.0253 24.1391C18.61 24.1391 23.948 18.8011 23.948 12.2165C23.948 5.63191 18.61 0.293945 12.0253 0.293945Z" fill="#E60023"/>
</g>
<defs>
<clipPath id="clip0_10_464">
<rect width="100" height="24.4722" fill="white"/>
</clipPath>
</defs>
</svg>
