<svg  viewBox="0 0 100 29" fill="none" xmlns="http://www.w3.org/2000/svg">
<g clip-path="url(#clip0_39_429)">
<mask id="mask0_39_429" style="mask-type:luminance" maskUnits="userSpaceOnUse" x="0" y="0" width="100" height="29">
<path d="M100 0H0V28.3721H100V0Z" fill="white"/>
</mask>
<g mask="url(#mask0_39_429)">
<path d="M21.5701 5.37367C21.5508 5.23274 21.4277 5.15456 21.3255 5.14605C21.2241 5.13754 19.2374 5.10735 19.2374 5.10735C19.2374 5.10735 17.5759 3.49384 17.4117 3.3297C17.2476 3.16556 16.9271 3.21511 16.8024 3.25227C16.8024 3.25227 16.4904 3.34906 15.9678 3.51087C15.8803 3.2275 15.7518 2.87909 15.5683 2.52914C14.9768 1.40031 14.1104 0.803372 13.0636 0.801828H13.0598C12.987 0.801828 12.915 0.808795 12.8422 0.814986C12.8113 0.777823 12.7803 0.741437 12.7478 0.705819C12.2917 0.218054 11.7072 -0.0196363 11.0065 0.00126796C9.6547 0.0399797 8.30833 1.01629 7.21665 2.75057C6.4486 3.97076 5.86405 5.50377 5.69837 6.69065C4.14602 7.17144 3.06054 7.50744 3.03654 7.51521C2.25302 7.7614 2.22825 7.7854 2.12605 8.52405C2.05017 9.08223 0 24.9355 0 24.9355L17.181 27.907L24.6276 26.0558C24.6276 26.0558 21.5895 5.51461 21.5701 5.37367ZM15.1076 3.7772C14.712 3.89953 14.2621 4.0389 13.7744 4.18987C13.7643 3.50545 13.683 2.55314 13.364 1.73013C14.3899 1.92447 14.8947 3.08504 15.1076 3.7772ZM12.8755 4.4686C11.9751 4.7473 10.9926 5.05158 10.007 5.35665C10.2841 4.29517 10.8099 3.23834 11.4556 2.5454C11.6956 2.28758 12.0316 2.00034 12.4295 1.8362C12.8035 2.61663 12.8848 3.72146 12.8755 4.4686ZM11.0336 0.900926C11.351 0.893958 11.6181 0.963642 11.8466 1.11384C11.4811 1.30353 11.128 1.57606 10.7967 1.93143C9.93805 2.85277 9.27995 4.28278 9.01749 5.66247C8.19912 5.91563 7.39856 6.16419 6.66149 6.39181C7.12684 4.22007 8.94702 0.961316 11.0336 0.900926Z" fill="#95BF47"/>
<path d="M21.3264 5.14702C21.225 5.1385 19.2383 5.10832 19.2383 5.10832C19.2383 5.10832 17.5768 3.49481 17.4126 3.33068C17.3515 3.26951 17.2686 3.23777 17.1819 3.22461L17.1827 27.9064L24.6285 26.056C24.6285 26.056 21.5904 5.51557 21.571 5.37464C21.5517 5.23371 21.4278 5.15553 21.3264 5.14702Z" fill="#5E8E3E"/>
<path d="M13.0542 8.97523L12.1894 12.2107C12.1894 12.2107 11.2247 11.7718 10.0812 11.8438C8.40419 11.9498 8.38638 13.0074 8.40345 13.273C8.4948 14.72 12.3017 15.0359 12.5154 18.4255C12.6834 21.092 11.1008 22.9161 8.82075 23.0601C6.08382 23.2327 4.57715 21.6185 4.57715 21.6185L5.15707 19.1518C5.15707 19.1518 6.67377 20.2961 7.88777 20.2194C8.68061 20.1691 8.96396 19.5242 8.93531 19.0681C8.8161 17.1805 5.71605 17.292 5.52019 14.1905C5.35526 11.5805 7.06945 8.93574 10.8515 8.69727C12.3087 8.6036 13.0542 8.97523 13.0542 8.97523Z" fill="white"/>
<path d="M34.4335 15.7504C33.5773 15.2858 33.1372 14.8942 33.1372 14.3559C33.1372 13.6709 33.7485 13.2309 34.7031 13.2309C35.8142 13.2309 36.8064 13.6955 36.8064 13.6955L37.5889 11.298C37.5889 11.298 36.8693 10.7351 34.7514 10.7351C31.8041 10.7351 29.7615 12.423 29.7615 14.7959C29.7615 16.1413 30.7152 17.1688 31.9877 17.9021C33.0151 18.4888 33.3822 18.905 33.3822 19.5163C33.3822 20.1522 32.8685 20.6659 31.9147 20.6659C30.4933 20.6659 29.151 19.9317 29.151 19.9317L28.3193 22.3292C28.3193 22.3292 29.5595 23.1609 31.6459 23.1609C34.6792 23.1609 36.8563 21.6688 36.8563 18.978C36.8555 17.5358 35.7551 16.5083 34.4335 15.7504Z" fill="white"/>
<path d="M46.5176 10.7115C45.0255 10.7115 43.8513 11.4211 42.9467 12.497L42.8976 12.4723L44.1938 5.69702H40.818L37.5405 22.9414H40.9163L42.0413 17.0469C42.4813 14.8207 43.6309 13.4515 44.7076 13.4515C45.4655 13.4515 45.7596 13.9652 45.7596 14.6993C45.7596 15.1639 45.7104 15.7268 45.6129 16.1914L44.3412 22.9422H47.7172L49.0376 15.971C49.1846 15.2369 49.2828 14.3569 49.2828 13.7694C49.2814 11.8611 48.2786 10.7115 46.5176 10.7115Z" fill="white"/>
<path d="M56.9131 10.7114C52.8521 10.7114 50.1624 14.3806 50.1624 18.4651C50.1624 21.0822 51.7763 23.1856 54.8098 23.1856C58.7968 23.1856 61.4875 19.6147 61.4875 15.4318C61.4875 13.0106 60.0684 10.7114 56.9131 10.7114ZM55.2498 20.5938C54.1 20.5938 53.6107 19.6155 53.6107 18.3922C53.6107 16.4601 54.614 13.3047 56.4484 13.3047C57.647 13.3047 58.0377 14.3322 58.0377 15.3351C58.0377 17.4138 57.0358 20.5938 55.2498 20.5938Z" fill="white"/>
<path d="M70.1218 10.7114C67.8432 10.7114 66.5502 12.7172 66.5502 12.7172H66.5018L66.6976 10.9072H63.7134C63.5669 12.1305 63.2972 13.9889 63.0288 15.3835L60.6804 27.7355H64.0562L64.9851 22.7455H65.059C65.059 22.7455 65.7516 23.1856 67.0404 23.1856C71.0027 23.1856 73.5953 19.1256 73.5953 15.0157C73.5953 12.7418 72.592 10.7114 70.1218 10.7114ZM66.893 20.6422C66.0167 20.6422 65.4981 20.153 65.4981 20.153L66.0609 16.9977C66.4525 14.8943 67.553 13.4998 68.7274 13.4998C69.7548 13.4998 70.0725 14.4535 70.0725 15.3589C70.0725 17.5359 68.7762 20.6422 66.893 20.6422Z" fill="white"/>
<path d="M78.414 5.86841C77.3382 5.86841 76.4819 6.72464 76.4819 7.82506C76.4819 8.82799 77.1177 9.51296 78.0717 9.51296H78.1205C79.1726 9.51296 80.0773 8.80338 80.1019 7.55631C80.1019 6.57794 79.4415 5.86841 78.414 5.86841Z" fill="white"/>
<path d="M73.6936 22.9413H77.0685L79.3685 10.981H75.968L73.6936 22.9413Z" fill="white"/>
<path d="M87.9538 10.9565H85.6054L85.7273 10.3936C85.9231 9.24409 86.6082 8.2166 87.7334 8.2166C88.3338 8.2166 88.8092 8.38786 88.8092 8.38786L89.4697 5.74623C89.4697 5.74623 88.8828 5.45288 87.6348 5.45288C86.4362 5.45288 85.2385 5.79534 84.3329 6.57786C83.1831 7.55623 82.645 8.97455 82.3761 10.3936L82.2789 10.9565H80.7129L80.2236 13.5007H81.7896L80.0042 22.9423H83.3799L85.1654 13.5007H87.4893L87.9538 10.9565Z" fill="white"/>
<path d="M96.0744 10.981C96.0744 10.981 93.9642 16.2973 93.0168 19.1993H92.9675C92.9033 18.2647 92.1358 10.981 92.1358 10.981H88.5889L90.62 21.963C90.6693 22.2072 90.6447 22.3547 90.5465 22.5259C90.1544 23.2839 89.4944 24.018 88.7116 24.5563C88.0758 25.0209 87.3665 25.3142 86.8042 25.51L87.7335 28.3721C88.4186 28.2254 89.8368 27.6625 91.0354 26.5375C92.5768 25.0946 93.9949 22.8684 95.4623 19.8351L99.5963 10.9802L96.0744 10.981Z" fill="white"/>
</g>
</g>
<defs>
<clipPath id="clip0_39_429">
<rect width="100" height="29" fill="white"/>
</clipPath>
</defs>
</svg>
